<svg xmlns="http://www.w3.org/2000/svg" width="500.000000pt" height="500.000000pt" viewBox="0 0 500.000000 500.000000" preserveAspectRatio="xMidYMid meet"><g transform="translate(0.000000,500.000000) scale(0.100000,-0.100000)" fill="#000000" stroke="none"><path d="M2266 4569 c-783 -91 -1463 -645 -1716 -1400 -71 -213 -102 -404 -102 -644 -1 -336 60 -604 207 -912 l63 -131 -144 -528 c-79 -290 -142 -529 -140 -531 2 -2 243 60 536 137 294 77 540 140 547 140 7 0 48 -17 91 -39 167 -84 401 -156 607 -188 152 -23 442 -23 590 1 360 58 672 189 948 398 103 78 280 250 360 348 562 696 611 1685 120 2430 -334 506 -862 838 -1456 915 -125 16 -391 18 -511 4z m504 -355 c648 -100 1193 -574 1379 -1201 52 -177 65 -277 66 -503 0 -174 -4 -222 -23 -318 -31 -153 -72 -274 -141 -418 -412 -854 -1425 -1211 -2280 -803 -58 27 -126 63 -152 79 l-48 29 -322 -85 c-177 -46 -323 -83 -324 -82 -2 2 35 143 82 313 l85 310 -19 35 c-11 19 -41 72 -67 116 -204 355 -269 839 -167 1241 84 327 240 596 483 828 134 129 261 219 423 299 326 162 668 215 1025 160z"></path><path d="M1705 3456 c-47 -20 -140 -129 -180 -208 -110 -225 -74 -476 108 -748 141 -211 347 -445 512 -580 182 -149 376 -254 620 -336 129 -44 149 -48 261 -52 94 -3 134 -1 180 13 86 24 181 81 246 145 61 61 88 125 102 241 12 98 12 98 -227 213 -253 123 -277 132 -309 115 -13 -7 -29 -21 -37 -31 -25 -36 -130 -165 -160 -197 -38 -40 -63 -40 -164 5 -211 92 -397 239 -540 426 -69 90 -127 186 -127 209 0 10 30 53 66 96 73 87 105 142 106 181 0 39 -187 484 -213 505 -17 14 -40 17 -118 17 -56 -1 -108 -6 -126 -14z"></path></g></svg>